<?xml version="1.0" standalone="no"?>
<!DOCTYPE svg PUBLIC "-//W3C//DTD SVG 20010904//EN"
 "http://www.w3.org/TR/2001/REC-SVG-20010904/DTD/svg10.dtd">
<svg version="1.0" xmlns="http://www.w3.org/2000/svg"
 width="1024.000000pt" height="1024.000000pt" viewBox="0 0 1024.000000 1024.000000"
 preserveAspectRatio="xMidYMid meet">

<g transform="translate(0.000000,1024.000000) scale(0.100000,-0.100000)"
fill="#000000" stroke="none">
<path d="M4905 7823 c-11 -2 -56 -11 -100 -19 -93 -18 -220 -68 -320 -126 -86
-50 -324 -209 -425 -283 -41 -31 -109 -79 -150 -107 -41 -28 -95 -68 -120 -88
-49 -40 -165 -120 -175 -120 -3 0 -35 -23 -70 -50 -36 -28 -95 -70 -132 -95
-38 -24 -116 -79 -175 -122 -59 -43 -161 -116 -228 -163 -67 -47 -137 -96
-155 -110 -54 -40 -100 -72 -152 -108 -44 -31 -319 -226 -457 -325 -82 -58
-174 -162 -218 -244 -21 -38 -49 -114 -64 -169 -22 -82 -26 -113 -21 -178 10
-155 104 -284 264 -363 l76 -37 158 -4 159 -4 0 -1015 c0 -1051 4 -1158 41
-1259 50 -133 187 -291 318 -369 150 -87 -32 -80 2046 -80 l1840 0 80 27 c217
74 371 228 442 443 l26 80 1 1087 1 1088 146 0 c120 0 159 4 215 21 178 54
295 175 340 352 21 79 13 170 -22 269 -69 191 -141 278 -386 465 -100 77 -223
168 -273 203 -49 35 -93 68 -97 74 -4 6 -8 203 -8 437 0 243 -4 449 -10 480
-24 128 -115 251 -230 310 l-65 34 -415 0 -415 0 -65 -31 c-36 -17 -75 -42
-87 -55 -28 -32 -93 -151 -93 -172 0 -9 -2 -17 -5 -17 -2 0 -48 31 -102 68
-280 195 -525 283 -783 281 -63 -1 -124 -3 -135 -6z m243 -283 c215 -27 407
-116 593 -275 29 -25 70 -51 90 -57 26 -7 36 -15 32 -25 -3 -7 -1 -13 5 -11 6
2 21 -12 35 -29 40 -55 75 -76 131 -81 72 -6 126 11 166 53 l35 36 2 142 2
142 28 17 c25 16 60 18 331 18 336 0 350 -2 396 -62 l26 -35 0 -494 c0 -272 3
-503 6 -515 3 -12 20 -28 37 -37 18 -8 73 -48 122 -87 50 -40 133 -102 185
-138 149 -103 285 -209 325 -254 54 -59 91 -146 105 -245 12 -80 11 -87 -8
-112 -40 -53 -91 -29 -332 159 -63 50 -162 125 -220 167 -58 43 -154 116 -215
163 -223 173 -262 202 -360 273 -55 40 -181 133 -281 207 -246 183 -451 333
-558 411 -49 35 -141 103 -205 150 -181 135 -304 188 -482 210 -151 18 -335
-13 -464 -78 -83 -42 -71 -34 -625 -444 -611 -453 -745 -553 -898 -666 -96
-70 -202 -149 -235 -175 -331 -255 -417 -313 -476 -324 -20 -4 -59 -24 -87
-45 -58 -45 -89 -50 -98 -16 -10 38 -7 97 9 146 8 25 19 72 26 104 7 39 20 68
37 86 15 16 104 84 197 151 94 68 188 136 210 152 22 17 78 56 125 89 47 33
148 105 225 160 77 54 212 149 300 211 191 133 404 283 500 352 187 133 425
298 600 416 150 101 320 172 456 189 92 12 115 12 207 1z m48 -611 c38 -12 87
-30 109 -42 43 -22 197 -125 311 -209 191 -141 340 -250 454 -332 69 -49 161
-117 206 -150 44 -34 249 -186 455 -340 l374 -278 0 -1322 0 -1321 -27 -58
c-42 -90 -81 -132 -153 -168 -56 -27 -81 -33 -177 -40 -179 -13 -3463 -11
-3533 2 -66 12 -136 44 -184 84 -23 20 -29 22 -24 9 13 -34 -16 -4 -51 55 -69
114 -66 39 -66 1428 l0 1252 113 90 c61 50 220 169 352 264 132 96 326 239
432 318 106 79 220 164 255 189 34 25 195 143 358 263 309 228 407 287 522
312 96 20 195 18 274 -6z"/>
<path d="M4890 6312 c-109 -32 -252 -104 -286 -145 -13 -15 -28 -45 -35 -65
-23 -77 47 -182 121 -182 14 0 68 20 118 45 51 24 119 51 151 60 121 31 257
11 393 -60 48 -25 100 -45 118 -45 88 0 144 86 119 184 -15 59 -59 102 -144
142 -208 96 -383 117 -555 66z"/>
<path d="M4855 5551 c-189 -40 -352 -109 -517 -221 -320 -215 -523 -482 -598
-788 -30 -122 -36 -212 -16 -251 34 -64 128 -91 196 -56 39 20 47 37 81 168
54 205 152 377 301 524 172 171 340 269 554 323 196 50 474 15 673 -83 314
-156 564 -467 627 -781 9 -44 24 -93 32 -108 36 -61 146 -76 199 -27 47 45 56
75 49 167 -12 160 -111 397 -229 551 -64 84 -245 262 -321 319 -153 112 -358
209 -526 249 -146 34 -375 41 -505 14z"/>
<path d="M4911 4754 c-122 -36 -205 -83 -312 -178 -196 -173 -311 -376 -354
-626 -20 -114 -10 -172 38 -218 98 -92 247 -3 247 148 0 99 95 302 194 415 90
103 215 176 330 191 165 23 399 -137 506 -347 39 -76 71 -175 80 -253 12 -102
34 -145 91 -175 58 -31 109 -23 155 23 43 43 57 98 48 199 -16 193 -121 396
-295 574 -230 234 -483 320 -728 247z"/>
<path d="M5042 4049 c-61 -12 -131 -49 -158 -85 -150 -197 -21 -451 220 -432
213 17 319 254 190 423 -27 36 -126 90 -179 98 -16 2 -49 0 -73 -4z"/>
<path d="M27 103 c-25 -4 -27 -8 -27 -54 0 -48 1 -49 30 -49 30 0 30 1 30 55
0 30 -1 54 -2 54 -2 -1 -15 -4 -31 -6z"/>
</g>
</svg>
